solid CATIA STL
  facet normal  -0.000000e+000  0.000000e+000  1.000000e+000
    outer loop
      vertex  1.460000e+002  7.000000e+000  1.800000e+000
      vertex -1.460000e+002  7.000000e+000  1.800000e+000
      vertex  1.465221e+002  6.965779e+000  1.800000e+000
    endloop
  endfacet
  facet normal  0.000000e+000  0.000000e+000  1.000000e+000
    outer loop
      vertex  1.465221e+002  6.965779e+000  1.800000e+000
      vertex -1.460000e+002  7.000000e+000  1.800000e+000
      vertex -1.465221e+002  6.965779e+000  1.800000e+000
    endloop
  endfacet
  facet normal  -0.000000e+000  0.000000e+000  9.999999e-001
    outer loop
      vertex  1.465221e+002  6.965779e+000  1.800000e+000
      vertex -1.465221e+002  6.965779e+000  1.800000e+000
      vertex  1.470353e+002  6.863703e+000  1.800000e+000
    endloop
  endfacet
  facet normal  0.000000e+000  0.000000e+000  1.000000e+000
    outer loop
      vertex  1.470353e+002  6.863703e+000  1.800000e+000
      vertex -1.465221e+002  6.965779e+000  1.800000e+000
      vertex -1.470353e+002  6.863703e+000  1.800000e+000
    endloop
  endfacet
  facet normal  -0.000000e+000  0.000000e+000  1.000000e+000
    outer loop
      vertex  1.470353e+002  6.863703e+000  1.800000e+000
      vertex -1.470353e+002  6.863703e+000  1.800000e+000
      vertex  1.475307e+002  6.695518e+000  1.800000e+000
    endloop
  endfacet
  facet normal  0.000000e+000  0.000000e+000  1.000000e+000
    outer loop
      vertex  1.475307e+002  6.695518e+000  1.800000e+000
      vertex -1.470353e+002  6.863703e+000  1.800000e+000
      vertex -1.475307e+002  6.695518e+000  1.800000e+000
    endloop
  endfacet
  facet normal  -0.000000e+000  0.000000e+000  1.000000e+000
    outer loop
      vertex  1.475307e+002  6.695518e+000  1.800000e+000
      vertex -1.475307e+002  6.695518e+000  1.800000e+000
      vertex  1.480000e+002  6.464102e+000  1.800000e+000
    endloop
  endfacet
  facet normal  0.000000e+000  0.000000e+000  1.000000e+000
    outer loop
      vertex  1.480000e+002  6.464102e+000  1.800000e+000
      vertex -1.475307e+002  6.695518e+000  1.800000e+000
      vertex -1.480000e+002  6.464102e+000  1.800000e+000
    endloop
  endfacet
  facet normal  -0.000000e+000  0.000000e+000  9.999999e-001
    outer loop
      vertex  1.480000e+002  6.464102e+000  1.800000e+000
      vertex -1.480000e+002  6.464102e+000  1.800000e+000
      vertex  1.484350e+002  6.173413e+000  1.800000e+000
    endloop
  endfacet
  facet normal  0.000000e+000  0.000000e+000  9.999999e-001
    outer loop
      vertex  1.484350e+002  6.173413e+000  1.800000e+000
      vertex -1.480000e+002  6.464102e+000  1.800000e+000
      vertex -1.484350e+002  6.173413e+000  1.800000e+000
    endloop
  endfacet
  facet normal  -0.000000e+000  0.000000e+000  1.000000e+000
    outer loop
      vertex  1.484350e+002  6.173413e+000  1.800000e+000
      vertex -1.484350e+002  6.173413e+000  1.800000e+000
      vertex  1.488284e+002  5.828427e+000  1.800000e+000
    endloop
  endfacet
  facet normal  0.000000e+000  0.000000e+000  1.000000e+000
    outer loop
      vertex  1.488284e+002  5.828427e+000  1.800000e+000
      vertex -1.484350e+002  6.173413e+000  1.800000e+000
      vertex -1.488284e+002  5.828427e+000  1.800000e+000
    endloop
  endfacet
  facet normal  -0.000000e+000  0.000000e+000  1.000000e+000
    outer loop
      vertex  1.488284e+002  5.828427e+000  1.800000e+000
      vertex -1.488284e+002  5.828427e+000  1.800000e+000
      vertex  1.491734e+002  5.435046e+000  1.800000e+000
    endloop
  endfacet
  facet normal  0.000000e+000  0.000000e+000  1.000000e+000
    outer loop
      vertex  1.491734e+002  5.435046e+000  1.800000e+000
      vertex -1.488284e+002  5.828427e+000  1.800000e+000
      vertex -1.491734e+002  5.435046e+000  1.800000e+000
    endloop
  endfacet
  facet normal  -0.000000e+000  0.000000e+000  1.000000e+000
    outer loop
      vertex  1.491734e+002  5.435046e+000  1.800000e+000
      vertex -1.491734e+002  5.435046e+000  1.800000e+000
      vertex  1.494641e+002  5.000000e+000  1.800000e+000
    endloop
  endfacet
  facet normal  0.000000e+000  0.000000e+000  1.000000e+000
    outer loop
      vertex  1.494641e+002  5.000000e+000  1.800000e+000
      vertex -1.491734e+002  5.435046e+000  1.800000e+000
      vertex -1.494641e+002  5.000000e+000  1.800000e+000
    endloop
  endfacet
  facet normal  -0.000000e+000  0.000000e+000  1.000000e+000
    outer loop
      vertex  1.494641e+002  5.000000e+000  1.800000e+000
      vertex -1.494641e+002  5.000000e+000  1.800000e+000
      vertex  1.496955e+002  4.530734e+000  1.800000e+000
    endloop
  endfacet
  facet normal  0.000000e+000  0.000000e+000  1.000000e+000
    outer loop
      vertex  1.496955e+002  4.530734e+000  1.800000e+000
      vertex -1.494641e+002  5.000000e+000  1.800000e+000
      vertex -1.496955e+002  4.530734e+000  1.800000e+000
    endloop
  endfacet
  facet normal  -0.000000e+000  0.000000e+000  1.000000e+000
    outer loop
      vertex  1.496955e+002  4.530734e+000  1.800000e+000
      vertex -1.496955e+002  4.530734e+000  1.800000e+000
      vertex  1.498637e+002  4.035276e+000  1.800000e+000
    endloop
  endfacet
  facet normal  0.000000e+000  0.000000e+000  1.000000e+000
    outer loop
      vertex  1.498637e+002  4.035276e+000  1.800000e+000
      vertex -1.496955e+002  4.530734e+000  1.800000e+000
      vertex -1.498637e+002  4.035276e+000  1.800000e+000
    endloop
  endfacet
  facet normal  -0.000000e+000  0.000000e+000  1.000000e+000
    outer loop
      vertex  1.498637e+002  4.035276e+000  1.800000e+000
      vertex -1.498637e+002  4.035276e+000  1.800000e+000
      vertex  1.499658e+002  3.522105e+000  1.800000e+000
    endloop
  endfacet
  facet normal  0.000000e+000  0.000000e+000  1.000000e+000
    outer loop
      vertex  1.499658e+002  3.522105e+000  1.800000e+000
      vertex -1.498637e+002  4.035276e+000  1.800000e+000
      vertex -1.499658e+002  3.522105e+000  1.800000e+000
    endloop
  endfacet
  facet normal  -0.000000e+000  0.000000e+000  9.999999e-001
    outer loop
      vertex  1.499658e+002  3.522105e+000  1.800000e+000
      vertex -1.499658e+002  3.522105e+000  1.800000e+000
      vertex  1.500000e+002  3.000000e+000  1.800000e+000
    endloop
  endfacet
  facet normal  0.000000e+000  0.000000e+000  1.000000e+000
    outer loop
      vertex  1.500000e+002  3.000000e+000  1.800000e+000
      vertex -1.499658e+002  3.522105e+000  1.800000e+000
      vertex -1.500000e+002  3.000000e+000  1.800000e+000
    endloop
  endfacet
  facet normal  -0.000000e+000  0.000000e+000  1.000000e+000
    outer loop
      vertex  1.500000e+002  3.000000e+000  1.800000e+000
      vertex -1.500000e+002  3.000000e+000  1.800000e+000
      vertex  1.500000e+002 -3.000000e+000  1.800000e+000
    endloop
  endfacet
  facet normal  0.000000e+000  0.000000e+000  1.000000e+000
    outer loop
      vertex  1.500000e+002 -3.000000e+000  1.800000e+000
      vertex -1.500000e+002  3.000000e+000  1.800000e+000
      vertex -1.500000e+002 -3.000000e+000  1.800000e+000
    endloop
  endfacet
  facet normal  -0.000000e+000  0.000000e+000  1.000000e+000
    outer loop
      vertex  1.500000e+002 -3.000000e+000  1.800000e+000
      vertex -1.500000e+002 -3.000000e+000  1.800000e+000
      vertex  1.499658e+002 -3.522105e+000  1.800000e+000
    endloop
  endfacet
  facet normal  0.000000e+000  0.000000e+000  9.999999e-001
    outer loop
      vertex  1.499658e+002 -3.522105e+000  1.800000e+000
      vertex -1.500000e+002 -3.000000e+000  1.800000e+000
      vertex -1.499658e+002 -3.522105e+000  1.800000e+000
    endloop
  endfacet
  facet normal  -0.000000e+000  0.000000e+000  1.000000e+000
    outer loop
      vertex  1.499658e+002 -3.522105e+000  1.800000e+000
      vertex -1.499658e+002 -3.522105e+000  1.800000e+000
      vertex  1.498637e+002 -4.035276e+000  1.800000e+000
    endloop
  endfacet
  facet normal  0.000000e+000  0.000000e+000  1.000000e+000
    outer loop
      vertex  1.498637e+002 -4.035276e+000  1.800000e+000
      vertex -1.499658e+002 -3.522105e+000  1.800000e+000
      vertex -1.498637e+002 -4.035276e+000  1.800000e+000
    endloop
  endfacet
  facet normal  -0.000000e+000  0.000000e+000  1.000000e+000
    outer loop
      vertex  1.498637e+002 -4.035276e+000  1.800000e+000
      vertex -1.498637e+002 -4.035276e+000  1.800000e+000
      vertex  1.496955e+002 -4.530734e+000  1.800000e+000
    endloop
  endfacet
  facet normal  0.000000e+000  0.000000e+000  1.000000e+000
    outer loop
      vertex  1.496955e+002 -4.530734e+000  1.800000e+000
      vertex -1.498637e+002 -4.035276e+000  1.800000e+000
      vertex -1.496955e+002 -4.530734e+000  1.800000e+000
    endloop
  endfacet
  facet normal  -0.000000e+000  0.000000e+000  1.000000e+000
    outer loop
      vertex  1.496955e+002 -4.530734e+000  1.800000e+000
      vertex -1.496955e+002 -4.530734e+000  1.800000e+000
      vertex  1.494641e+002 -5.000000e+000  1.800000e+000
    endloop
  endfacet
  facet normal  0.000000e+000  0.000000e+000  1.000000e+000
    outer loop
      vertex  1.494641e+002 -5.000000e+000  1.800000e+000
      vertex -1.496955e+002 -4.530734e+000  1.800000e+000
      vertex -1.494641e+002 -5.000000e+000  1.800000e+000
    endloop
  endfacet
  facet normal  -0.000000e+000  0.000000e+000  1.000000e+000
    outer loop
      vertex  1.494641e+002 -5.000000e+000  1.800000e+000
      vertex -1.494641e+002 -5.000000e+000  1.800000e+000
      vertex  1.491734e+002 -5.435046e+000  1.800000e+000
    endloop
  endfacet
  facet normal  0.000000e+000  0.000000e+000  1.000000e+000
    outer loop
      vertex  1.491734e+002 -5.435046e+000  1.800000e+000
      vertex -1.494641e+002 -5.000000e+000  1.800000e+000
      vertex -1.491734e+002 -5.435046e+000  1.800000e+000
    endloop
  endfacet
  facet normal  -0.000000e+000  0.000000e+000  1.000000e+000
    outer loop
      vertex  1.491734e+002 -5.435046e+000  1.800000e+000
      vertex -1.491734e+002 -5.435046e+000  1.800000e+000
      vertex  1.488284e+002 -5.828427e+000  1.800000e+000
    endloop
  endfacet
  facet normal  0.000000e+000  0.000000e+000  1.000000e+000
    outer loop
      vertex  1.488284e+002 -5.828427e+000  1.800000e+000
      vertex -1.491734e+002 -5.435046e+000  1.800000e+000
      vertex -1.488284e+002 -5.828427e+000  1.800000e+000
    endloop
  endfacet
  facet normal  -0.000000e+000  0.000000e+000  1.000000e+000
    outer loop
      vertex  1.488284e+002 -5.828427e+000  1.800000e+000
      vertex -1.488284e+002 -5.828427e+000  1.800000e+000
      vertex  1.484350e+002 -6.173413e+000  1.800000e+000
    endloop
  endfacet
  facet normal  0.000000e+000  0.000000e+000  1.000000e+000
    outer loop
      vertex  1.484350e+002 -6.173413e+000  1.800000e+000
      vertex -1.488284e+002 -5.828427e+000  1.800000e+000
      vertex -1.484350e+002 -6.173413e+000  1.800000e+000
    endloop
  endfacet
  facet normal  -0.000000e+000  0.000000e+000  9.999999e-001
    outer loop
      vertex  1.484350e+002 -6.173413e+000  1.800000e+000
      vertex -1.484350e+002 -6.173413e+000  1.800000e+000
      vertex  1.480000e+002 -6.464102e+000  1.800000e+000
    endloop
  endfacet
  facet normal  0.000000e+000  0.000000e+000  9.999999e-001
    outer loop
      vertex  1.480000e+002 -6.464102e+000  1.800000e+000
      vertex -1.484350e+002 -6.173413e+000  1.800000e+000
      vertex -1.480000e+002 -6.464102e+000  1.800000e+000
    endloop
  endfacet
  facet normal  -0.000000e+000  0.000000e+000  1.000000e+000
    outer loop
      vertex  1.480000e+002 -6.464102e+000  1.800000e+000
      vertex -1.480000e+002 -6.464102e+000  1.800000e+000
      vertex  1.475307e+002 -6.695518e+000  1.800000e+000
    endloop
  endfacet
  facet normal  0.000000e+000  0.000000e+000  1.000000e+000
    outer loop
      vertex  1.475307e+002 -6.695518e+000  1.800000e+000
      vertex -1.480000e+002 -6.464102e+000  1.800000e+000
      vertex -1.475307e+002 -6.695518e+000  1.800000e+000
    endloop
  endfacet
  facet normal  -0.000000e+000  0.000000e+000  1.000000e+000
    outer loop
      vertex  1.475307e+002 -6.695518e+000  1.800000e+000
      vertex -1.475307e+002 -6.695518e+000  1.800000e+000
      vertex  1.470353e+002 -6.863703e+000  1.800000e+000
    endloop
  endfacet
  facet normal  0.000000e+000  0.000000e+000  1.000000e+000
    outer loop
      vertex  1.470353e+002 -6.863703e+000  1.800000e+000
      vertex -1.475307e+002 -6.695518e+000  1.800000e+000
      vertex -1.470353e+002 -6.863703e+000  1.800000e+000
    endloop
  endfacet
  facet normal  -0.000000e+000  0.000000e+000  1.000000e+000
    outer loop
      vertex  1.470353e+002 -6.863703e+000  1.800000e+000
      vertex -1.470353e+002 -6.863703e+000  1.800000e+000
      vertex  1.465221e+002 -6.965779e+000  1.800000e+000
    endloop
  endfacet
  facet normal  0.000000e+000  0.000000e+000  9.999999e-001
    outer loop
      vertex  1.465221e+002 -6.965779e+000  1.800000e+000
      vertex -1.470353e+002 -6.863703e+000  1.800000e+000
      vertex -1.465221e+002 -6.965779e+000  1.800000e+000
    endloop
  endfacet
  facet normal  -0.000000e+000  0.000000e+000  1.000000e+000
    outer loop
      vertex  1.465221e+002 -6.965779e+000  1.800000e+000
      vertex -1.465221e+002 -6.965779e+000  1.800000e+000
      vertex  1.460000e+002 -7.000000e+000  1.800000e+000
    endloop
  endfacet
  facet normal  0.000000e+000  0.000000e+000  1.000000e+000
    outer loop
      vertex  1.460000e+002 -7.000000e+000  1.800000e+000
      vertex -1.465221e+002 -6.965779e+000  1.800000e+000
      vertex -1.460000e+002 -7.000000e+000  1.800000e+000
    endloop
  endfacet
  facet normal  0.000000e+000  0.000000e+000 -9.999999e-001
    outer loop
      vertex  1.500000e+002  3.000000e+000  0.000000e+000
      vertex -1.499658e+002  3.522105e+000  0.000000e+000
      vertex  1.499658e+002  3.522105e+000  0.000000e+000
    endloop
  endfacet
  facet normal  0.000000e+000  0.000000e+000 -1.000000e+000
    outer loop
      vertex  1.499658e+002  3.522105e+000  0.000000e+000
      vertex -1.499658e+002  3.522105e+000  0.000000e+000
      vertex -1.498637e+002  4.035276e+000  0.000000e+000
    endloop
  endfacet
  facet normal  0.000000e+000  0.000000e+000 -1.000000e+000
    outer loop
      vertex  1.499658e+002  3.522105e+000  0.000000e+000
      vertex -1.498637e+002  4.035276e+000  0.000000e+000
      vertex  1.498637e+002  4.035276e+000  0.000000e+000
    endloop
  endfacet
  facet normal  0.000000e+000  0.000000e+000 -1.000000e+000
    outer loop
      vertex  1.498637e+002  4.035276e+000  0.000000e+000
      vertex -1.498637e+002  4.035276e+000  0.000000e+000
      vertex -1.496955e+002  4.530734e+000  0.000000e+000
    endloop
  endfacet
  facet normal  0.000000e+000  0.000000e+000 -1.000000e+000
    outer loop
      vertex  1.498637e+002  4.035276e+000  0.000000e+000
      vertex -1.496955e+002  4.530734e+000  0.000000e+000
      vertex  1.496955e+002  4.530734e+000  0.000000e+000
    endloop
  endfacet
  facet normal  0.000000e+000  0.000000e+000 -1.000000e+000
    outer loop
      vertex  1.496955e+002  4.530734e+000  0.000000e+000
      vertex -1.496955e+002  4.530734e+000  0.000000e+000
      vertex -1.494641e+002  5.000000e+000  0.000000e+000
    endloop
  endfacet
  facet normal  0.000000e+000  0.000000e+000 -1.000000e+000
    outer loop
      vertex  1.496955e+002  4.530734e+000  0.000000e+000
      vertex -1.494641e+002  5.000000e+000  0.000000e+000
      vertex  1.494641e+002  5.000000e+000  0.000000e+000
    endloop
  endfacet
  facet normal  0.000000e+000  0.000000e+000 -1.000000e+000
    outer loop
      vertex  1.494641e+002  5.000000e+000  0.000000e+000
      vertex -1.494641e+002  5.000000e+000  0.000000e+000
      vertex -1.491734e+002  5.435046e+000  0.000000e+000
    endloop
  endfacet
  facet normal  0.000000e+000  0.000000e+000 -1.000000e+000
    outer loop
      vertex  1.494641e+002  5.000000e+000  0.000000e+000
      vertex -1.491734e+002  5.435046e+000  0.000000e+000
      vertex  1.491734e+002  5.435046e+000  0.000000e+000
    endloop
  endfacet
  facet normal  0.000000e+000  0.000000e+000 -1.000000e+000
    outer loop
      vertex  1.491734e+002  5.435046e+000  0.000000e+000
      vertex -1.491734e+002  5.435046e+000  0.000000e+000
      vertex -1.488284e+002  5.828427e+000  0.000000e+000
    endloop
  endfacet
  facet normal  0.000000e+000  0.000000e+000 -1.000000e+000
    outer loop
      vertex  1.491734e+002  5.435046e+000  0.000000e+000
      vertex -1.488284e+002  5.828427e+000  0.000000e+000
      vertex  1.488284e+002  5.828427e+000  0.000000e+000
    endloop
  endfacet
  facet normal  0.000000e+000  0.000000e+000 -1.000000e+000
    outer loop
      vertex  1.488284e+002  5.828427e+000  0.000000e+000
      vertex -1.488284e+002  5.828427e+000  0.000000e+000
      vertex -1.484350e+002  6.173413e+000  0.000000e+000
    endloop
  endfacet
  facet normal  0.000000e+000  0.000000e+000 -1.000000e+000
    outer loop
      vertex  1.488284e+002  5.828427e+000  0.000000e+000
      vertex -1.484350e+002  6.173413e+000  0.000000e+000
      vertex  1.484350e+002  6.173413e+000  0.000000e+000
    endloop
  endfacet
  facet normal  0.000000e+000  0.000000e+000 -9.999999e-001
    outer loop
      vertex  1.484350e+002  6.173413e+000  0.000000e+000
      vertex -1.484350e+002  6.173413e+000  0.000000e+000
      vertex -1.480000e+002  6.464102e+000  0.000000e+000
    endloop
  endfacet
  facet normal  0.000000e+000  0.000000e+000 -9.999999e-001
    outer loop
      vertex  1.484350e+002  6.173413e+000  0.000000e+000
      vertex -1.480000e+002  6.464102e+000  0.000000e+000
      vertex  1.480000e+002  6.464102e+000  0.000000e+000
    endloop
  endfacet
  facet normal  0.000000e+000  0.000000e+000 -1.000000e+000
    outer loop
      vertex  1.480000e+002  6.464102e+000  0.000000e+000
      vertex -1.480000e+002  6.464102e+000  0.000000e+000
      vertex -1.475307e+002  6.695518e+000  0.000000e+000
    endloop
  endfacet
  facet normal  0.000000e+000  0.000000e+000 -1.000000e+000
    outer loop
      vertex  1.480000e+002  6.464102e+000  0.000000e+000
      vertex -1.475307e+002  6.695518e+000  0.000000e+000
      vertex  1.475307e+002  6.695518e+000  0.000000e+000
    endloop
  endfacet
  facet normal  0.000000e+000  0.000000e+000 -1.000000e+000
    outer loop
      vertex  1.475307e+002  6.695518e+000  0.000000e+000
      vertex -1.475307e+002  6.695518e+000  0.000000e+000
      vertex -1.470353e+002  6.863703e+000  0.000000e+000
    endloop
  endfacet
  facet normal  0.000000e+000  0.000000e+000 -1.000000e+000
    outer loop
      vertex  1.475307e+002  6.695518e+000  0.000000e+000
      vertex -1.470353e+002  6.863703e+000  0.000000e+000
      vertex  1.470353e+002  6.863703e+000  0.000000e+000
    endloop
  endfacet
  facet normal  0.000000e+000  0.000000e+000 -1.000000e+000
    outer loop
      vertex  1.470353e+002  6.863703e+000  0.000000e+000
      vertex -1.470353e+002  6.863703e+000  0.000000e+000
      vertex -1.465221e+002  6.965779e+000  0.000000e+000
    endloop
  endfacet
  facet normal  0.000000e+000  0.000000e+000 -9.999999e-001
    outer loop
      vertex  1.470353e+002  6.863703e+000  0.000000e+000
      vertex -1.465221e+002  6.965779e+000  0.000000e+000
      vertex  1.465221e+002  6.965779e+000  0.000000e+000
    endloop
  endfacet
  facet normal  0.000000e+000  0.000000e+000 -1.000000e+000
    outer loop
      vertex  1.465221e+002  6.965779e+000  0.000000e+000
      vertex -1.465221e+002  6.965779e+000  0.000000e+000
      vertex -1.460000e+002  7.000000e+000  0.000000e+000
    endloop
  endfacet
  facet normal  0.000000e+000  0.000000e+000 -1.000000e+000
    outer loop
      vertex  1.465221e+002  6.965779e+000  0.000000e+000
      vertex -1.460000e+002  7.000000e+000  0.000000e+000
      vertex  1.460000e+002  7.000000e+000  0.000000e+000
    endloop
  endfacet
  facet normal  0.000000e+000  0.000000e+000 -1.000000e+000
    outer loop
      vertex -1.499658e+002  3.522105e+000  0.000000e+000
      vertex  1.500000e+002  3.000000e+000  0.000000e+000
      vertex -1.500000e+002  3.000000e+000  0.000000e+000
    endloop
  endfacet
  facet normal  0.000000e+000  0.000000e+000 -1.000000e+000
    outer loop
      vertex -1.500000e+002  3.000000e+000  0.000000e+000
      vertex  1.500000e+002  3.000000e+000  0.000000e+000
      vertex  1.500000e+002 -3.000000e+000  0.000000e+000
    endloop
  endfacet
  facet normal  0.000000e+000  0.000000e+000 -1.000000e+000
    outer loop
      vertex -1.500000e+002  3.000000e+000  0.000000e+000
      vertex  1.500000e+002 -3.000000e+000  0.000000e+000
      vertex -1.500000e+002 -3.000000e+000  0.000000e+000
    endloop
  endfacet
  facet normal  0.000000e+000  0.000000e+000 -1.000000e+000
    outer loop
      vertex -1.500000e+002 -3.000000e+000  0.000000e+000
      vertex  1.500000e+002 -3.000000e+000  0.000000e+000
      vertex  1.499658e+002 -3.522105e+000  0.000000e+000
    endloop
  endfacet
  facet normal  0.000000e+000  0.000000e+000 -9.999999e-001
    outer loop
      vertex -1.500000e+002 -3.000000e+000  0.000000e+000
      vertex  1.499658e+002 -3.522105e+000  0.000000e+000
      vertex -1.499658e+002 -3.522105e+000  0.000000e+000
    endloop
  endfacet
  facet normal  0.000000e+000  0.000000e+000 -1.000000e+000
    outer loop
      vertex -1.499658e+002 -3.522105e+000  0.000000e+000
      vertex  1.499658e+002 -3.522105e+000  0.000000e+000
      vertex  1.498637e+002 -4.035276e+000  0.000000e+000
    endloop
  endfacet
  facet normal  0.000000e+000  0.000000e+000 -1.000000e+000
    outer loop
      vertex -1.499658e+002 -3.522105e+000  0.000000e+000
      vertex  1.498637e+002 -4.035276e+000  0.000000e+000
      vertex -1.498637e+002 -4.035276e+000  0.000000e+000
    endloop
  endfacet
  facet normal  0.000000e+000  0.000000e+000 -1.000000e+000
    outer loop
      vertex -1.498637e+002 -4.035276e+000  0.000000e+000
      vertex  1.498637e+002 -4.035276e+000  0.000000e+000
      vertex  1.496955e+002 -4.530734e+000  0.000000e+000
    endloop
  endfacet
  facet normal  0.000000e+000  0.000000e+000 -1.000000e+000
    outer loop
      vertex -1.498637e+002 -4.035276e+000  0.000000e+000
      vertex  1.496955e+002 -4.530734e+000  0.000000e+000
      vertex -1.496955e+002 -4.530734e+000  0.000000e+000
    endloop
  endfacet
  facet normal  0.000000e+000  0.000000e+000 -1.000000e+000
    outer loop
      vertex -1.496955e+002 -4.530734e+000  0.000000e+000
      vertex  1.496955e+002 -4.530734e+000  0.000000e+000
      vertex  1.494641e+002 -5.000000e+000  0.000000e+000
    endloop
  endfacet
  facet normal  0.000000e+000  0.000000e+000 -1.000000e+000
    outer loop
      vertex -1.496955e+002 -4.530734e+000  0.000000e+000
      vertex  1.494641e+002 -5.000000e+000  0.000000e+000
      vertex -1.494641e+002 -5.000000e+000  0.000000e+000
    endloop
  endfacet
  facet normal  0.000000e+000  0.000000e+000 -1.000000e+000
    outer loop
      vertex -1.494641e+002 -5.000000e+000  0.000000e+000
      vertex  1.494641e+002 -5.000000e+000  0.000000e+000
      vertex  1.491734e+002 -5.435046e+000  0.000000e+000
    endloop
  endfacet
  facet normal  0.000000e+000  0.000000e+000 -1.000000e+000
    outer loop
      vertex -1.494641e+002 -5.000000e+000  0.000000e+000
      vertex  1.491734e+002 -5.435046e+000  0.000000e+000
      vertex -1.491734e+002 -5.435046e+000  0.000000e+000
    endloop
  endfacet
  facet normal  0.000000e+000  0.000000e+000 -1.000000e+000
    outer loop
      vertex -1.491734e+002 -5.435046e+000  0.000000e+000
      vertex  1.491734e+002 -5.435046e+000  0.000000e+000
      vertex  1.488284e+002 -5.828427e+000  0.000000e+000
    endloop
  endfacet
  facet normal  0.000000e+000  0.000000e+000 -1.000000e+000
    outer loop
      vertex -1.491734e+002 -5.435046e+000  0.000000e+000
      vertex  1.488284e+002 -5.828427e+000  0.000000e+000
      vertex -1.488284e+002 -5.828427e+000  0.000000e+000
    endloop
  endfacet
  facet normal  0.000000e+000  0.000000e+000 -1.000000e+000
    outer loop
      vertex -1.488284e+002 -5.828427e+000  0.000000e+000
      vertex  1.488284e+002 -5.828427e+000  0.000000e+000
      vertex  1.484350e+002 -6.173413e+000  0.000000e+000
    endloop
  endfacet
  facet normal  0.000000e+000  0.000000e+000 -1.000000e+000
    outer loop
      vertex -1.488284e+002 -5.828427e+000  0.000000e+000
      vertex  1.484350e+002 -6.173413e+000  0.000000e+000
      vertex -1.484350e+002 -6.173413e+000  0.000000e+000
    endloop
  endfacet
  facet normal  0.000000e+000  0.000000e+000 -9.999999e-001
    outer loop
      vertex -1.484350e+002 -6.173413e+000  0.000000e+000
      vertex  1.484350e+002 -6.173413e+000  0.000000e+000
      vertex  1.480000e+002 -6.464102e+000  0.000000e+000
    endloop
  endfacet
  facet normal  0.000000e+000  0.000000e+000 -9.999999e-001
    outer loop
      vertex -1.484350e+002 -6.173413e+000  0.000000e+000
      vertex  1.480000e+002 -6.464102e+000  0.000000e+000
      vertex -1.480000e+002 -6.464102e+000  0.000000e+000
    endloop
  endfacet
  facet normal  0.000000e+000  0.000000e+000 -1.000000e+000
    outer loop
      vertex -1.480000e+002 -6.464102e+000  0.000000e+000
      vertex  1.480000e+002 -6.464102e+000  0.000000e+000
      vertex  1.475307e+002 -6.695518e+000  0.000000e+000
    endloop
  endfacet
  facet normal  0.000000e+000  0.000000e+000 -1.000000e+000
    outer loop
      vertex -1.480000e+002 -6.464102e+000  0.000000e+000
      vertex  1.475307e+002 -6.695518e+000  0.000000e+000
      vertex -1.475307e+002 -6.695518e+000  0.000000e+000
    endloop
  endfacet
  facet normal  0.000000e+000  0.000000e+000 -1.000000e+000
    outer loop
      vertex -1.475307e+002 -6.695518e+000  0.000000e+000
      vertex  1.475307e+002 -6.695518e+000  0.000000e+000
      vertex  1.470353e+002 -6.863703e+000  0.000000e+000
    endloop
  endfacet
  facet normal  0.000000e+000  0.000000e+000 -1.000000e+000
    outer loop
      vertex -1.475307e+002 -6.695518e+000  0.000000e+000
      vertex  1.470353e+002 -6.863703e+000  0.000000e+000
      vertex -1.470353e+002 -6.863703e+000  0.000000e+000
    endloop
  endfacet
  facet normal  0.000000e+000  0.000000e+000 -1.000000e+000
    outer loop
      vertex -1.470353e+002 -6.863703e+000  0.000000e+000
      vertex  1.470353e+002 -6.863703e+000  0.000000e+000
      vertex  1.465221e+002 -6.965779e+000  0.000000e+000
    endloop
  endfacet
  facet normal  0.000000e+000  0.000000e+000 -9.999999e-001
    outer loop
      vertex -1.470353e+002 -6.863703e+000  0.000000e+000
      vertex  1.465221e+002 -6.965779e+000  0.000000e+000
      vertex -1.465221e+002 -6.965779e+000  0.000000e+000
    endloop
  endfacet
  facet normal  0.000000e+000  0.000000e+000 -1.000000e+000
    outer loop
      vertex -1.465221e+002 -6.965779e+000  0.000000e+000
      vertex  1.465221e+002 -6.965779e+000  0.000000e+000
      vertex  1.460000e+002 -7.000000e+000  0.000000e+000
    endloop
  endfacet
  facet normal  0.000000e+000  0.000000e+000 -1.000000e+000
    outer loop
      vertex -1.465221e+002 -6.965779e+000  0.000000e+000
      vertex  1.460000e+002 -7.000000e+000  0.000000e+000
      vertex -1.460000e+002 -7.000000e+000  0.000000e+000
    endloop
  endfacet
  facet normal -1.000000e+000  0.000000e+000  0.000000e+000
    outer loop
      vertex -1.500000e+002  3.000000e+000  1.800000e+000
      vertex -1.500000e+002  3.000000e+000  0.000000e+000
      vertex -1.500000e+002 -3.000000e+000  1.800000e+000
    endloop
  endfacet
  facet normal -1.000000e+000  0.000000e+000  0.000000e+000
    outer loop
      vertex -1.500000e+002 -3.000000e+000  1.800000e+000
      vertex -1.500000e+002  3.000000e+000  0.000000e+000
      vertex -1.500000e+002 -3.000000e+000  0.000000e+000
    endloop
  endfacet
  facet normal  0.000000e+000 -1.000000e+000  0.000000e+000
    outer loop
      vertex  1.460000e+002 -7.000000e+000  1.800000e+000
      vertex -1.460000e+002 -7.000000e+000  1.800000e+000
      vertex  1.460000e+002 -7.000000e+000  0.000000e+000
    endloop
  endfacet
  facet normal  0.000000e+000 -1.000000e+000  0.000000e+000
    outer loop
      vertex  1.460000e+002 -7.000000e+000  0.000000e+000
      vertex -1.460000e+002 -7.000000e+000  1.800000e+000
      vertex -1.460000e+002 -7.000000e+000  0.000000e+000
    endloop
  endfacet
  facet normal -6.540275e-002 -9.978589e-001  -0.000000e+000
    outer loop
      vertex -1.460000e+002 -7.000000e+000  0.000000e+000
      vertex -1.460000e+002 -7.000000e+000  1.800000e+000
      vertex -1.465221e+002 -6.965779e+000  0.000000e+000
    endloop
  endfacet
  facet normal -6.540275e-002 -9.978589e-001  0.000000e+000
    outer loop
      vertex -1.465221e+002 -6.965779e+000  0.000000e+000
      vertex -1.460000e+002 -7.000000e+000  1.800000e+000
      vertex -1.465221e+002 -6.965779e+000  1.800000e+000
    endloop
  endfacet
  facet normal -1.950913e-001 -9.807851e-001  -0.000000e+000
    outer loop
      vertex -1.465221e+002 -6.965779e+000  0.000000e+000
      vertex -1.465221e+002 -6.965779e+000  1.800000e+000
      vertex -1.470353e+002 -6.863703e+000  0.000000e+000
    endloop
  endfacet
  facet normal -1.950913e-001 -9.807851e-001  0.000000e+000
    outer loop
      vertex -1.470353e+002 -6.863703e+000  0.000000e+000
      vertex -1.465221e+002 -6.965779e+000  1.800000e+000
      vertex -1.470353e+002 -6.863703e+000  1.800000e+000
    endloop
  endfacet
  facet normal -3.214423e-001 -9.469292e-001  -0.000000e+000
    outer loop
      vertex -1.470353e+002 -6.863703e+000  0.000000e+000
      vertex -1.470353e+002 -6.863703e+000  1.800000e+000
      vertex -1.475307e+002 -6.695518e+000  0.000000e+000
    endloop
  endfacet
  facet normal -3.214423e-001 -9.469292e-001  0.000000e+000
    outer loop
      vertex -1.475307e+002 -6.695518e+000  0.000000e+000
      vertex -1.470353e+002 -6.863703e+000  1.800000e+000
      vertex -1.475307e+002 -6.695518e+000  1.800000e+000
    endloop
  endfacet
  facet normal -4.422863e-001 -8.968739e-001  -0.000000e+000
    outer loop
      vertex -1.475307e+002 -6.695518e+000  0.000000e+000
      vertex -1.475307e+002 -6.695518e+000  1.800000e+000
      vertex -1.480000e+002 -6.464102e+000  0.000000e+000
    endloop
  endfacet
  facet normal -4.422863e-001 -8.968739e-001  0.000000e+000
    outer loop
      vertex -1.480000e+002 -6.464102e+000  0.000000e+000
      vertex -1.475307e+002 -6.695518e+000  1.800000e+000
      vertex -1.480000e+002 -6.464102e+000  1.800000e+000
    endloop
  endfacet
  facet normal -5.555727e-001 -8.314680e-001  -0.000000e+000
    outer loop
      vertex -1.480000e+002 -6.464102e+000  0.000000e+000
      vertex -1.480000e+002 -6.464102e+000  1.800000e+000
      vertex -1.484350e+002 -6.173413e+000  0.000000e+000
    endloop
  endfacet
  facet normal -5.555727e-001 -8.314680e-001  0.000000e+000
    outer loop
      vertex -1.484350e+002 -6.173413e+000  0.000000e+000
      vertex -1.480000e+002 -6.464102e+000  1.800000e+000
      vertex -1.484350e+002 -6.173413e+000  1.800000e+000
    endloop
  endfacet
  facet normal -6.593404e-001 -7.518446e-001  -0.000000e+000
    outer loop
      vertex -1.484350e+002 -6.173413e+000  0.000000e+000
      vertex -1.484350e+002 -6.173413e+000  1.800000e+000
      vertex -1.488284e+002 -5.828427e+000  0.000000e+000
    endloop
  endfacet
  facet normal -6.593404e-001 -7.518446e-001  0.000000e+000
    outer loop
      vertex -1.488284e+002 -5.828427e+000  0.000000e+000
      vertex -1.484350e+002 -6.173413e+000  1.800000e+000
      vertex -1.488284e+002 -5.828427e+000  1.800000e+000
    endloop
  endfacet
  facet normal -7.518402e-001 -6.593453e-001  -0.000000e+000
    outer loop
      vertex -1.488284e+002 -5.828427e+000  0.000000e+000
      vertex -1.488284e+002 -5.828427e+000  1.800000e+000
      vertex -1.491734e+002 -5.435046e+000  0.000000e+000
    endloop
  endfacet
  facet normal -7.518402e-001 -6.593453e-001  0.000000e+000
    outer loop
      vertex -1.491734e+002 -5.435046e+000  0.000000e+000
      vertex -1.488284e+002 -5.828427e+000  1.800000e+000
      vertex -1.491734e+002 -5.435046e+000  1.800000e+000
    endloop
  endfacet
  facet normal -8.314769e-001 -5.555592e-001  -0.000000e+000
    outer loop
      vertex -1.491734e+002 -5.435046e+000  0.000000e+000
      vertex -1.491734e+002 -5.435046e+000  1.800000e+000
      vertex -1.494641e+002 -5.000000e+000  0.000000e+000
    endloop
  endfacet
  facet normal -8.314769e-001 -5.555592e-001  0.000000e+000
    outer loop
      vertex -1.494641e+002 -5.000000e+000  0.000000e+000
      vertex -1.491734e+002 -5.435046e+000  1.800000e+000
      vertex -1.494641e+002 -5.000000e+000  1.800000e+000
    endloop
  endfacet
  facet normal -8.968741e-001 -4.422859e-001  -0.000000e+000
    outer loop
      vertex -1.494641e+002 -5.000000e+000  0.000000e+000
      vertex -1.494641e+002 -5.000000e+000  1.800000e+000
      vertex -1.496955e+002 -4.530734e+000  0.000000e+000
    endloop
  endfacet
  facet normal -8.968741e-001 -4.422859e-001  0.000000e+000
    outer loop
      vertex -1.496955e+002 -4.530734e+000  0.000000e+000
      vertex -1.494641e+002 -5.000000e+000  1.800000e+000
      vertex -1.496955e+002 -4.530734e+000  1.800000e+000
    endloop
  endfacet
  facet normal -9.469228e-001 -3.214610e-001  -0.000000e+000
    outer loop
      vertex -1.496955e+002 -4.530734e+000  0.000000e+000
      vertex -1.496955e+002 -4.530734e+000  1.800000e+000
      vertex -1.498637e+002 -4.035276e+000  0.000000e+000
    endloop
  endfacet
  facet normal -9.469228e-001 -3.214610e-001  0.000000e+000
    outer loop
      vertex -1.498637e+002 -4.035276e+000  0.000000e+000
      vertex -1.496955e+002 -4.530734e+000  1.800000e+000
      vertex -1.498637e+002 -4.035276e+000  1.800000e+000
    endloop
  endfacet
  facet normal -9.807890e-001 -1.950717e-001  -0.000000e+000
    outer loop
      vertex -1.498637e+002 -4.035276e+000  0.000000e+000
      vertex -1.498637e+002 -4.035276e+000  1.800000e+000
      vertex -1.499658e+002 -3.522105e+000  0.000000e+000
    endloop
  endfacet
  facet normal -9.807890e-001 -1.950717e-001  0.000000e+000
    outer loop
      vertex -1.499658e+002 -3.522105e+000  0.000000e+000
      vertex -1.498637e+002 -4.035276e+000  1.800000e+000
      vertex -1.499658e+002 -3.522105e+000  1.800000e+000
    endloop
  endfacet
  facet normal -9.978584e-001 -6.541248e-002  -0.000000e+000
    outer loop
      vertex -1.499658e+002 -3.522105e+000  0.000000e+000
      vertex -1.499658e+002 -3.522105e+000  1.800000e+000
      vertex -1.500000e+002 -3.000000e+000  0.000000e+000
    endloop
  endfacet
  facet normal -9.978584e-001 -6.541248e-002  0.000000e+000
    outer loop
      vertex -1.500000e+002 -3.000000e+000  0.000000e+000
      vertex -1.499658e+002 -3.522105e+000  1.800000e+000
      vertex -1.500000e+002 -3.000000e+000  1.800000e+000
    endloop
  endfacet
  facet normal  0.000000e+000  1.000000e+000  0.000000e+000
    outer loop
      vertex -1.460000e+002  7.000000e+000  1.800000e+000
      vertex  1.460000e+002  7.000000e+000  1.800000e+000
      vertex -1.460000e+002  7.000000e+000  0.000000e+000
    endloop
  endfacet
  facet normal  0.000000e+000  1.000000e+000  0.000000e+000
    outer loop
      vertex -1.460000e+002  7.000000e+000  0.000000e+000
      vertex  1.460000e+002  7.000000e+000  1.800000e+000
      vertex  1.460000e+002  7.000000e+000  0.000000e+000
    endloop
  endfacet
  facet normal -9.978584e-001  6.541248e-002  0.000000e+000
    outer loop
      vertex -1.500000e+002  3.000000e+000  0.000000e+000
      vertex -1.500000e+002  3.000000e+000  1.800000e+000
      vertex -1.499658e+002  3.522105e+000  0.000000e+000
    endloop
  endfacet
  facet normal -9.978584e-001  6.541248e-002  0.000000e+000
    outer loop
      vertex -1.499658e+002  3.522105e+000  0.000000e+000
      vertex -1.500000e+002  3.000000e+000  1.800000e+000
      vertex -1.499658e+002  3.522105e+000  1.800000e+000
    endloop
  endfacet
  facet normal -9.807890e-001  1.950717e-001  0.000000e+000
    outer loop
      vertex -1.499658e+002  3.522105e+000  0.000000e+000
      vertex -1.499658e+002  3.522105e+000  1.800000e+000
      vertex -1.498637e+002  4.035276e+000  0.000000e+000
    endloop
  endfacet
  facet normal -9.807890e-001  1.950717e-001  0.000000e+000
    outer loop
      vertex -1.498637e+002  4.035276e+000  0.000000e+000
      vertex -1.499658e+002  3.522105e+000  1.800000e+000
      vertex -1.498637e+002  4.035276e+000  1.800000e+000
    endloop
  endfacet
  facet normal -9.469228e-001  3.214610e-001  0.000000e+000
    outer loop
      vertex -1.498637e+002  4.035276e+000  0.000000e+000
      vertex -1.498637e+002  4.035276e+000  1.800000e+000
      vertex -1.496955e+002  4.530734e+000  0.000000e+000
    endloop
  endfacet
  facet normal -9.469228e-001  3.214610e-001  0.000000e+000
    outer loop
      vertex -1.496955e+002  4.530734e+000  0.000000e+000
      vertex -1.498637e+002  4.035276e+000  1.800000e+000
      vertex -1.496955e+002  4.530734e+000  1.800000e+000
    endloop
  endfacet
  facet normal -8.968741e-001  4.422859e-001  0.000000e+000
    outer loop
      vertex -1.496955e+002  4.530734e+000  0.000000e+000
      vertex -1.496955e+002  4.530734e+000  1.800000e+000
      vertex -1.494641e+002  5.000000e+000  0.000000e+000
    endloop
  endfacet
  facet normal -8.968741e-001  4.422859e-001  0.000000e+000
    outer loop
      vertex -1.494641e+002  5.000000e+000  0.000000e+000
      vertex -1.496955e+002  4.530734e+000  1.800000e+000
      vertex -1.494641e+002  5.000000e+000  1.800000e+000
    endloop
  endfacet
  facet normal -8.314769e-001  5.555592e-001  0.000000e+000
    outer loop
      vertex -1.494641e+002  5.000000e+000  0.000000e+000
      vertex -1.494641e+002  5.000000e+000  1.800000e+000
      vertex -1.491734e+002  5.435046e+000  0.000000e+000
    endloop
  endfacet
  facet normal -8.314769e-001  5.555592e-001  0.000000e+000
    outer loop
      vertex -1.491734e+002  5.435046e+000  0.000000e+000
      vertex -1.494641e+002  5.000000e+000  1.800000e+000
      vertex -1.491734e+002  5.435046e+000  1.800000e+000
    endloop
  endfacet
  facet normal -7.518402e-001  6.593453e-001  0.000000e+000
    outer loop
      vertex -1.491734e+002  5.435046e+000  0.000000e+000
      vertex -1.491734e+002  5.435046e+000  1.800000e+000
      vertex -1.488284e+002  5.828427e+000  0.000000e+000
    endloop
  endfacet
  facet normal -7.518402e-001  6.593453e-001  0.000000e+000
    outer loop
      vertex -1.488284e+002  5.828427e+000  0.000000e+000
      vertex -1.491734e+002  5.435046e+000  1.800000e+000
      vertex -1.488284e+002  5.828427e+000  1.800000e+000
    endloop
  endfacet
  facet normal -6.593404e-001  7.518446e-001  0.000000e+000
    outer loop
      vertex -1.488284e+002  5.828427e+000  0.000000e+000
      vertex -1.488284e+002  5.828427e+000  1.800000e+000
      vertex -1.484350e+002  6.173413e+000  0.000000e+000
    endloop
  endfacet
  facet normal -6.593404e-001  7.518446e-001  0.000000e+000
    outer loop
      vertex -1.484350e+002  6.173413e+000  0.000000e+000
      vertex -1.488284e+002  5.828427e+000  1.800000e+000
      vertex -1.484350e+002  6.173413e+000  1.800000e+000
    endloop
  endfacet
  facet normal -5.555727e-001  8.314680e-001  0.000000e+000
    outer loop
      vertex -1.484350e+002  6.173413e+000  0.000000e+000
      vertex -1.484350e+002  6.173413e+000  1.800000e+000
      vertex -1.480000e+002  6.464102e+000  0.000000e+000
    endloop
  endfacet
  facet normal -5.555727e-001  8.314680e-001  0.000000e+000
    outer loop
      vertex -1.480000e+002  6.464102e+000  0.000000e+000
      vertex -1.484350e+002  6.173413e+000  1.800000e+000
      vertex -1.480000e+002  6.464102e+000  1.800000e+000
    endloop
  endfacet
  facet normal -4.422863e-001  8.968739e-001  0.000000e+000
    outer loop
      vertex -1.480000e+002  6.464102e+000  0.000000e+000
      vertex -1.480000e+002  6.464102e+000  1.800000e+000
      vertex -1.475307e+002  6.695518e+000  0.000000e+000
    endloop
  endfacet
  facet normal -4.422863e-001  8.968739e-001  0.000000e+000
    outer loop
      vertex -1.475307e+002  6.695518e+000  0.000000e+000
      vertex -1.480000e+002  6.464102e+000  1.800000e+000
      vertex -1.475307e+002  6.695518e+000  1.800000e+000
    endloop
  endfacet
  facet normal -3.214423e-001  9.469292e-001  0.000000e+000
    outer loop
      vertex -1.475307e+002  6.695518e+000  0.000000e+000
      vertex -1.475307e+002  6.695518e+000  1.800000e+000
      vertex -1.470353e+002  6.863703e+000  0.000000e+000
    endloop
  endfacet
  facet normal -3.214423e-001  9.469292e-001  0.000000e+000
    outer loop
      vertex -1.470353e+002  6.863703e+000  0.000000e+000
      vertex -1.475307e+002  6.695518e+000  1.800000e+000
      vertex -1.470353e+002  6.863703e+000  1.800000e+000
    endloop
  endfacet
  facet normal -1.950913e-001  9.807851e-001  0.000000e+000
    outer loop
      vertex -1.470353e+002  6.863703e+000  0.000000e+000
      vertex -1.470353e+002  6.863703e+000  1.800000e+000
      vertex -1.465221e+002  6.965779e+000  0.000000e+000
    endloop
  endfacet
  facet normal -1.950913e-001  9.807851e-001  0.000000e+000
    outer loop
      vertex -1.465221e+002  6.965779e+000  0.000000e+000
      vertex -1.470353e+002  6.863703e+000  1.800000e+000
      vertex -1.465221e+002  6.965779e+000  1.800000e+000
    endloop
  endfacet
  facet normal -6.540275e-002  9.978589e-001  0.000000e+000
    outer loop
      vertex -1.465221e+002  6.965779e+000  0.000000e+000
      vertex -1.465221e+002  6.965779e+000  1.800000e+000
      vertex -1.460000e+002  7.000000e+000  0.000000e+000
    endloop
  endfacet
  facet normal -6.540275e-002  9.978589e-001  0.000000e+000
    outer loop
      vertex -1.460000e+002  7.000000e+000  0.000000e+000
      vertex -1.465221e+002  6.965779e+000  1.800000e+000
      vertex -1.460000e+002  7.000000e+000  1.800000e+000
    endloop
  endfacet
  facet normal  1.000000e+000  0.000000e+000  0.000000e+000
    outer loop
      vertex  1.500000e+002 -3.000000e+000  1.800000e+000
      vertex  1.500000e+002 -3.000000e+000  0.000000e+000
      vertex  1.500000e+002  3.000000e+000  1.800000e+000
    endloop
  endfacet
  facet normal  1.000000e+000  0.000000e+000  0.000000e+000
    outer loop
      vertex  1.500000e+002  3.000000e+000  1.800000e+000
      vertex  1.500000e+002 -3.000000e+000  0.000000e+000
      vertex  1.500000e+002  3.000000e+000  0.000000e+000
    endloop
  endfacet
  facet normal  9.978584e-001 -6.541248e-002  0.000000e+000
    outer loop
      vertex  1.500000e+002 -3.000000e+000  0.000000e+000
      vertex  1.500000e+002 -3.000000e+000  1.800000e+000
      vertex  1.499658e+002 -3.522105e+000  0.000000e+000
    endloop
  endfacet
  facet normal  9.978584e-001 -6.541248e-002  0.000000e+000
    outer loop
      vertex  1.499658e+002 -3.522105e+000  0.000000e+000
      vertex  1.500000e+002 -3.000000e+000  1.800000e+000
      vertex  1.499658e+002 -3.522105e+000  1.800000e+000
    endloop
  endfacet
  facet normal  9.807890e-001 -1.950717e-001  0.000000e+000
    outer loop
      vertex  1.499658e+002 -3.522105e+000  0.000000e+000
      vertex  1.499658e+002 -3.522105e+000  1.800000e+000
      vertex  1.498637e+002 -4.035276e+000  0.000000e+000
    endloop
  endfacet
  facet normal  9.807890e-001 -1.950717e-001  0.000000e+000
    outer loop
      vertex  1.498637e+002 -4.035276e+000  0.000000e+000
      vertex  1.499658e+002 -3.522105e+000  1.800000e+000
      vertex  1.498637e+002 -4.035276e+000  1.800000e+000
    endloop
  endfacet
  facet normal  9.469228e-001 -3.214610e-001  0.000000e+000
    outer loop
      vertex  1.498637e+002 -4.035276e+000  0.000000e+000
      vertex  1.498637e+002 -4.035276e+000  1.800000e+000
      vertex  1.496955e+002 -4.530734e+000  0.000000e+000
    endloop
  endfacet
  facet normal  9.469228e-001 -3.214610e-001  0.000000e+000
    outer loop
      vertex  1.496955e+002 -4.530734e+000  0.000000e+000
      vertex  1.498637e+002 -4.035276e+000  1.800000e+000
      vertex  1.496955e+002 -4.530734e+000  1.800000e+000
    endloop
  endfacet
  facet normal  8.968741e-001 -4.422859e-001  0.000000e+000
    outer loop
      vertex  1.496955e+002 -4.530734e+000  0.000000e+000
      vertex  1.496955e+002 -4.530734e+000  1.800000e+000
      vertex  1.494641e+002 -5.000000e+000  0.000000e+000
    endloop
  endfacet
  facet normal  8.968741e-001 -4.422859e-001  0.000000e+000
    outer loop
      vertex  1.494641e+002 -5.000000e+000  0.000000e+000
      vertex  1.496955e+002 -4.530734e+000  1.800000e+000
      vertex  1.494641e+002 -5.000000e+000  1.800000e+000
    endloop
  endfacet
  facet normal  8.314769e-001 -5.555592e-001  0.000000e+000
    outer loop
      vertex  1.494641e+002 -5.000000e+000  0.000000e+000
      vertex  1.494641e+002 -5.000000e+000  1.800000e+000
      vertex  1.491734e+002 -5.435046e+000  0.000000e+000
    endloop
  endfacet
  facet normal  8.314769e-001 -5.555592e-001  0.000000e+000
    outer loop
      vertex  1.491734e+002 -5.435046e+000  0.000000e+000
      vertex  1.494641e+002 -5.000000e+000  1.800000e+000
      vertex  1.491734e+002 -5.435046e+000  1.800000e+000
    endloop
  endfacet
  facet normal  7.518402e-001 -6.593453e-001  0.000000e+000
    outer loop
      vertex  1.491734e+002 -5.435046e+000  0.000000e+000
      vertex  1.491734e+002 -5.435046e+000  1.800000e+000
      vertex  1.488284e+002 -5.828427e+000  0.000000e+000
    endloop
  endfacet
  facet normal  7.518402e-001 -6.593453e-001  0.000000e+000
    outer loop
      vertex  1.488284e+002 -5.828427e+000  0.000000e+000
      vertex  1.491734e+002 -5.435046e+000  1.800000e+000
      vertex  1.488284e+002 -5.828427e+000  1.800000e+000
    endloop
  endfacet
  facet normal  6.593404e-001 -7.518446e-001  0.000000e+000
    outer loop
      vertex  1.488284e+002 -5.828427e+000  0.000000e+000
      vertex  1.488284e+002 -5.828427e+000  1.800000e+000
      vertex  1.484350e+002 -6.173413e+000  0.000000e+000
    endloop
  endfacet
  facet normal  6.593404e-001 -7.518446e-001  0.000000e+000
    outer loop
      vertex  1.484350e+002 -6.173413e+000  0.000000e+000
      vertex  1.488284e+002 -5.828427e+000  1.800000e+000
      vertex  1.484350e+002 -6.173413e+000  1.800000e+000
    endloop
  endfacet
  facet normal  5.555727e-001 -8.314680e-001  0.000000e+000
    outer loop
      vertex  1.484350e+002 -6.173413e+000  0.000000e+000
      vertex  1.484350e+002 -6.173413e+000  1.800000e+000
      vertex  1.480000e+002 -6.464102e+000  0.000000e+000
    endloop
  endfacet
  facet normal  5.555727e-001 -8.314680e-001  0.000000e+000
    outer loop
      vertex  1.480000e+002 -6.464102e+000  0.000000e+000
      vertex  1.484350e+002 -6.173413e+000  1.800000e+000
      vertex  1.480000e+002 -6.464102e+000  1.800000e+000
    endloop
  endfacet
  facet normal  4.422863e-001 -8.968739e-001  0.000000e+000
    outer loop
      vertex  1.480000e+002 -6.464102e+000  0.000000e+000
      vertex  1.480000e+002 -6.464102e+000  1.800000e+000
      vertex  1.475307e+002 -6.695518e+000  0.000000e+000
    endloop
  endfacet
  facet normal  4.422863e-001 -8.968739e-001  0.000000e+000
    outer loop
      vertex  1.475307e+002 -6.695518e+000  0.000000e+000
      vertex  1.480000e+002 -6.464102e+000  1.800000e+000
      vertex  1.475307e+002 -6.695518e+000  1.800000e+000
    endloop
  endfacet
  facet normal  3.214423e-001 -9.469292e-001  0.000000e+000
    outer loop
      vertex  1.475307e+002 -6.695518e+000  0.000000e+000
      vertex  1.475307e+002 -6.695518e+000  1.800000e+000
      vertex  1.470353e+002 -6.863703e+000  0.000000e+000
    endloop
  endfacet
  facet normal  3.214423e-001 -9.469292e-001  0.000000e+000
    outer loop
      vertex  1.470353e+002 -6.863703e+000  0.000000e+000
      vertex  1.475307e+002 -6.695518e+000  1.800000e+000
      vertex  1.470353e+002 -6.863703e+000  1.800000e+000
    endloop
  endfacet
  facet normal  1.950913e-001 -9.807851e-001  0.000000e+000
    outer loop
      vertex  1.470353e+002 -6.863703e+000  0.000000e+000
      vertex  1.470353e+002 -6.863703e+000  1.800000e+000
      vertex  1.465221e+002 -6.965779e+000  0.000000e+000
    endloop
  endfacet
  facet normal  1.950913e-001 -9.807851e-001  0.000000e+000
    outer loop
      vertex  1.465221e+002 -6.965779e+000  0.000000e+000
      vertex  1.470353e+002 -6.863703e+000  1.800000e+000
      vertex  1.465221e+002 -6.965779e+000  1.800000e+000
    endloop
  endfacet
  facet normal  6.540275e-002 -9.978589e-001  0.000000e+000
    outer loop
      vertex  1.465221e+002 -6.965779e+000  0.000000e+000
      vertex  1.465221e+002 -6.965779e+000  1.800000e+000
      vertex  1.460000e+002 -7.000000e+000  0.000000e+000
    endloop
  endfacet
  facet normal  6.540275e-002 -9.978589e-001  0.000000e+000
    outer loop
      vertex  1.460000e+002 -7.000000e+000  0.000000e+000
      vertex  1.465221e+002 -6.965779e+000  1.800000e+000
      vertex  1.460000e+002 -7.000000e+000  1.800000e+000
    endloop
  endfacet
  facet normal  6.540275e-002  9.978589e-001  0.000000e+000
    outer loop
      vertex  1.460000e+002  7.000000e+000  0.000000e+000
      vertex  1.460000e+002  7.000000e+000  1.800000e+000
      vertex  1.465221e+002  6.965779e+000  0.000000e+000
    endloop
  endfacet
  facet normal  6.540275e-002  9.978589e-001  -0.000000e+000
    outer loop
      vertex  1.465221e+002  6.965779e+000  0.000000e+000
      vertex  1.460000e+002  7.000000e+000  1.800000e+000
      vertex  1.465221e+002  6.965779e+000  1.800000e+000
    endloop
  endfacet
  facet normal  1.950913e-001  9.807851e-001  0.000000e+000
    outer loop
      vertex  1.465221e+002  6.965779e+000  0.000000e+000
      vertex  1.465221e+002  6.965779e+000  1.800000e+000
      vertex  1.470353e+002  6.863703e+000  0.000000e+000
    endloop
  endfacet
  facet normal  1.950913e-001  9.807851e-001  -0.000000e+000
    outer loop
      vertex  1.470353e+002  6.863703e+000  0.000000e+000
      vertex  1.465221e+002  6.965779e+000  1.800000e+000
      vertex  1.470353e+002  6.863703e+000  1.800000e+000
    endloop
  endfacet
  facet normal  3.214423e-001  9.469292e-001  0.000000e+000
    outer loop
      vertex  1.470353e+002  6.863703e+000  0.000000e+000
      vertex  1.470353e+002  6.863703e+000  1.800000e+000
      vertex  1.475307e+002  6.695518e+000  0.000000e+000
    endloop
  endfacet
  facet normal  3.214423e-001  9.469292e-001  -0.000000e+000
    outer loop
      vertex  1.475307e+002  6.695518e+000  0.000000e+000
      vertex  1.470353e+002  6.863703e+000  1.800000e+000
      vertex  1.475307e+002  6.695518e+000  1.800000e+000
    endloop
  endfacet
  facet normal  4.422863e-001  8.968739e-001  0.000000e+000
    outer loop
      vertex  1.475307e+002  6.695518e+000  0.000000e+000
      vertex  1.475307e+002  6.695518e+000  1.800000e+000
      vertex  1.480000e+002  6.464102e+000  0.000000e+000
    endloop
  endfacet
  facet normal  4.422863e-001  8.968739e-001  -0.000000e+000
    outer loop
      vertex  1.480000e+002  6.464102e+000  0.000000e+000
      vertex  1.475307e+002  6.695518e+000  1.800000e+000
      vertex  1.480000e+002  6.464102e+000  1.800000e+000
    endloop
  endfacet
  facet normal  5.555727e-001  8.314680e-001  0.000000e+000
    outer loop
      vertex  1.480000e+002  6.464102e+000  0.000000e+000
      vertex  1.480000e+002  6.464102e+000  1.800000e+000
      vertex  1.484350e+002  6.173413e+000  0.000000e+000
    endloop
  endfacet
  facet normal  5.555727e-001  8.314680e-001  -0.000000e+000
    outer loop
      vertex  1.484350e+002  6.173413e+000  0.000000e+000
      vertex  1.480000e+002  6.464102e+000  1.800000e+000
      vertex  1.484350e+002  6.173413e+000  1.800000e+000
    endloop
  endfacet
  facet normal  6.593404e-001  7.518446e-001  0.000000e+000
    outer loop
      vertex  1.484350e+002  6.173413e+000  0.000000e+000
      vertex  1.484350e+002  6.173413e+000  1.800000e+000
      vertex  1.488284e+002  5.828427e+000  0.000000e+000
    endloop
  endfacet
  facet normal  6.593404e-001  7.518446e-001  -0.000000e+000
    outer loop
      vertex  1.488284e+002  5.828427e+000  0.000000e+000
      vertex  1.484350e+002  6.173413e+000  1.800000e+000
      vertex  1.488284e+002  5.828427e+000  1.800000e+000
    endloop
  endfacet
  facet normal  7.518402e-001  6.593453e-001  0.000000e+000
    outer loop
      vertex  1.488284e+002  5.828427e+000  0.000000e+000
      vertex  1.488284e+002  5.828427e+000  1.800000e+000
      vertex  1.491734e+002  5.435046e+000  0.000000e+000
    endloop
  endfacet
  facet normal  7.518402e-001  6.593453e-001  -0.000000e+000
    outer loop
      vertex  1.491734e+002  5.435046e+000  0.000000e+000
      vertex  1.488284e+002  5.828427e+000  1.800000e+000
      vertex  1.491734e+002  5.435046e+000  1.800000e+000
    endloop
  endfacet
  facet normal  8.314769e-001  5.555592e-001  0.000000e+000
    outer loop
      vertex  1.491734e+002  5.435046e+000  0.000000e+000
      vertex  1.491734e+002  5.435046e+000  1.800000e+000
      vertex  1.494641e+002  5.000000e+000  0.000000e+000
    endloop
  endfacet
  facet normal  8.314769e-001  5.555592e-001  -0.000000e+000
    outer loop
      vertex  1.494641e+002  5.000000e+000  0.000000e+000
      vertex  1.491734e+002  5.435046e+000  1.800000e+000
      vertex  1.494641e+002  5.000000e+000  1.800000e+000
    endloop
  endfacet
  facet normal  8.968741e-001  4.422859e-001  0.000000e+000
    outer loop
      vertex  1.494641e+002  5.000000e+000  0.000000e+000
      vertex  1.494641e+002  5.000000e+000  1.800000e+000
      vertex  1.496955e+002  4.530734e+000  0.000000e+000
    endloop
  endfacet
  facet normal  8.968741e-001  4.422859e-001  -0.000000e+000
    outer loop
      vertex  1.496955e+002  4.530734e+000  0.000000e+000
      vertex  1.494641e+002  5.000000e+000  1.800000e+000
      vertex  1.496955e+002  4.530734e+000  1.800000e+000
    endloop
  endfacet
  facet normal  9.469228e-001  3.214610e-001  0.000000e+000
    outer loop
      vertex  1.496955e+002  4.530734e+000  0.000000e+000
      vertex  1.496955e+002  4.530734e+000  1.800000e+000
      vertex  1.498637e+002  4.035276e+000  0.000000e+000
    endloop
  endfacet
  facet normal  9.469228e-001  3.214610e-001  -0.000000e+000
    outer loop
      vertex  1.498637e+002  4.035276e+000  0.000000e+000
      vertex  1.496955e+002  4.530734e+000  1.800000e+000
      vertex  1.498637e+002  4.035276e+000  1.800000e+000
    endloop
  endfacet
  facet normal  9.807890e-001  1.950717e-001  0.000000e+000
    outer loop
      vertex  1.498637e+002  4.035276e+000  0.000000e+000
      vertex  1.498637e+002  4.035276e+000  1.800000e+000
      vertex  1.499658e+002  3.522105e+000  0.000000e+000
    endloop
  endfacet
  facet normal  9.807890e-001  1.950717e-001  -0.000000e+000
    outer loop
      vertex  1.499658e+002  3.522105e+000  0.000000e+000
      vertex  1.498637e+002  4.035276e+000  1.800000e+000
      vertex  1.499658e+002  3.522105e+000  1.800000e+000
    endloop
  endfacet
  facet normal  9.978584e-001  6.541248e-002  0.000000e+000
    outer loop
      vertex  1.499658e+002  3.522105e+000  0.000000e+000
      vertex  1.499658e+002  3.522105e+000  1.800000e+000
      vertex  1.500000e+002  3.000000e+000  0.000000e+000
    endloop
  endfacet
  facet normal  9.978584e-001  6.541248e-002  -0.000000e+000
    outer loop
      vertex  1.500000e+002  3.000000e+000  0.000000e+000
      vertex  1.499658e+002  3.522105e+000  1.800000e+000
      vertex  1.500000e+002  3.000000e+000  1.800000e+000
    endloop
  endfacet
endsolid CATIA STL
